<svg width="10" height="10" viewBox="0 0 10 10" fill="none" xmlns="http://www.w3.org/2000/svg">
<g clip-path="url(#clip0)">
<path d="M2.41442 4.72569L7.03971 0.11319C7.19126 -0.0378443 7.43661 -0.0375904 7.5879 0.113971C7.73907 0.265514 7.73868 0.511001 7.58711 0.662152L3.23713 5.00012L7.58727 9.33807C7.73881 9.48924 7.7392 9.73457 7.58805 9.88613C7.51221 9.96211 7.41286 10.0001 7.3135 10.0001C7.2144 10.0001 7.11544 9.96236 7.03973 9.88691L2.41442 5.27453C2.34143 5.20192 2.30047 5.10309 2.30047 5.00012C2.30047 4.89715 2.34155 4.79844 2.41442 4.72569Z" fill="black" fill-opacity="0.4"/>
</g>
<defs>
<clipPath id="clip0">
<rect width="10" height="10" fill="white" transform="matrix(-1 0 0 1 10 0)"/>
</clipPath>
</defs>
</svg>
