<svg width="12" height="9" viewBox="0 0 12 9" fill="none" xmlns="http://www.w3.org/2000/svg">
<path d="M11.5313 3.99546H1.60412L3.24859 1.74307C3.43208 1.49172 3.43278 1.08324 3.25016 0.830687C3.06753 0.578107 2.77072 0.577171 2.58723 0.828494L0.137915 4.18333C0.137751 4.18353 0.137634 4.18375 0.137493 4.18395C-0.0455302 4.4353 -0.0461161 4.84511 0.137446 5.0973C0.13761 5.0975 0.137728 5.09772 0.137868 5.09792L2.58718 8.45276C2.77065 8.70405 3.06746 8.70318 3.25011 8.45056C3.43274 8.19801 3.43203 7.78953 3.24854 7.53817L1.60412 5.28579H11.5313C11.7901 5.28579 12 4.99695 12 4.64062C12 4.2843 11.7901 3.99546 11.5313 3.99546Z" fill="#F2DA87"/>
</svg>
