<svg width="13" height="15" viewBox="0 0 13 15" fill="none" xmlns="http://www.w3.org/2000/svg">
<g clip-path="url(#clip0)">
<path d="M12.4922 6.91406H1.73779L3.5193 4.86843C3.71809 4.64015 3.71885 4.26917 3.521 4.0398C3.32316 3.81041 3.00161 3.80956 2.80283 4.03781L0.149408 7.08468C0.14923 7.08486 0.149103 7.08506 0.148951 7.08524C-0.0493244 7.31352 -0.0499591 7.68571 0.1489 7.91475C0.149078 7.91493 0.149205 7.91513 0.149357 7.91531L2.80278 10.9622C3.00154 11.1904 3.32308 11.1896 3.52095 10.9602C3.7188 10.7308 3.71804 10.3598 3.51925 10.1316L1.73779 8.08593H12.4922C12.7727 8.08593 13 7.82361 13 7.49999C13 7.17638 12.7727 6.91406 12.4922 6.91406Z" fill="white"/>
</g>
<defs>
<clipPath id="clip0">
<rect width="13" height="15" fill="white"/>
</clipPath>
</defs>
</svg>
