<svg width="15" height="15" viewBox="0 0 15 15" fill="none" xmlns="http://www.w3.org/2000/svg">
<g clip-path="url(#clip0)">
<path d="M6.2184 11.4329L4.45088 13.2004C3.7181 13.9332 2.53143 13.9332 1.79926 13.2005C1.06695 12.4682 1.06695 11.2814 1.79912 10.5493L5.33477 7.01362C6.06693 6.28143 7.25373 6.28143 7.98589 7.01362C8.22997 7.2577 8.62571 7.2577 8.86978 7.01362C9.11386 6.76955 9.11386 6.37381 8.86978 6.12973C7.64944 4.90939 5.67122 4.90939 4.45088 6.12973L0.915254 9.66536C-0.305085 10.8857 -0.305085 12.8639 0.915254 14.0843C2.13545 15.3052 4.11382 15.3052 5.3348 14.0843L7.10232 12.3167C7.3464 12.0727 7.3464 11.6769 7.10232 11.4328C6.85825 11.1888 6.46247 11.1888 6.2184 11.4329Z" fill="black"/>
<path d="M14.0845 0.914766C12.8641 -0.305573 10.8853 -0.305573 9.66493 0.914766L7.5443 3.0354C7.30022 3.27948 7.30022 3.67522 7.5443 3.9193C7.78837 4.16337 8.18411 4.16337 8.42819 3.9193L10.5488 1.79866C11.281 1.06647 12.4684 1.06647 13.2006 1.79866C13.9328 2.53082 13.9328 3.71761 13.2006 4.44978L9.31182 8.33858C8.57962 9.07077 7.39286 9.07077 6.6607 8.33858C6.41662 8.0945 6.02088 8.0945 5.77681 8.33858C5.53273 8.58265 5.53273 8.9784 5.77681 9.22247C6.99714 10.4428 8.97537 10.4428 10.1957 9.22247L14.0845 5.3337C15.3048 4.11336 15.3048 2.13511 14.0845 0.914766Z" fill="black"/>
</g>
<defs>
<clipPath id="clip0">
<rect width="15" height="15" fill="white"/>
</clipPath>
</defs>
</svg>
