<svg width="15" height="15" viewBox="0 0 15 15" fill="none" xmlns="http://www.w3.org/2000/svg">
<path d="M2.16631 0.761719C1.13514 0.761719 0.460938 1.43884 0.460938 2.32882C0.460938 3.19914 1.11505 3.89557 2.12674 3.89557H2.14631C3.19765 3.89557 3.85194 3.19914 3.85194 2.32882C3.83228 1.43884 3.19765 0.761719 2.16631 0.761719V0.761719Z" fill="#F2DA87"/>
<path d="M0.640625 5.13379H3.65517V14.2032H0.640625V5.13379Z" fill="#F2DA87"/>
<path d="M11.0536 4.9209C9.42738 4.9209 8.3369 6.44903 8.3369 6.44903V5.13376H5.32227V14.2031H8.33673V9.13845C8.33673 8.86731 8.35638 8.5966 8.43603 8.40271C8.65396 7.86129 9.14989 7.30038 9.9827 7.30038C11.0735 7.30038 11.5098 8.13208 11.5098 9.35131V14.2031H14.5241V9.00292C14.5241 6.2172 13.0368 4.9209 11.0536 4.9209V4.9209Z" fill="#F2DA87"/>
</svg>
