<svg width="12" height="9" viewBox="0 0 12 9" fill="none" xmlns="http://www.w3.org/2000/svg">
<path d="M0.468741 3.99546H10.3959L8.75141 1.74307C8.56792 1.49172 8.56722 1.08324 8.74984 0.830687C8.93247 0.578107 9.22928 0.577171 9.41277 0.828494L11.8621 4.18333C11.8622 4.18353 11.8624 4.18375 11.8625 4.18395C12.0455 4.4353 12.0461 4.84511 11.8626 5.0973C11.8624 5.0975 11.8623 5.09772 11.8621 5.09792L9.41282 8.45276C9.22935 8.70405 8.93254 8.70318 8.74989 8.45056C8.56726 8.19801 8.56797 7.78953 8.75146 7.53817L10.3959 5.28579H0.468741C0.209851 5.28579 -8.58307e-06 4.99695 -8.58307e-06 4.64062C-8.58307e-06 4.2843 0.209851 3.99546 0.468741 3.99546Z" fill="#F2DA87"/>
</svg>
