<svg width="15" height="15" viewBox="0 0 15 15" fill="none" xmlns="http://www.w3.org/2000/svg">
<path d="M0.34092 9.54547C0.152738 9.54547 0 9.39273 0 9.20455V5.79545C0 5.60727 0.152738 5.45453 0.34092 5.45453C0.529102 5.45453 0.68184 5.60727 0.68184 5.79545V9.20455C0.681808 9.39273 0.529102 9.54547 0.34092 9.54547Z" fill="black"/>
<path d="M2.38584 12.2727C2.19766 12.2727 2.04492 12.12 2.04492 11.9318V3.06815C2.04492 2.87997 2.19766 2.72723 2.38584 2.72723C2.57402 2.72723 2.72673 2.87997 2.72673 3.06815V11.9318C2.72673 12.12 2.57402 12.2727 2.38584 12.2727Z" fill="black"/>
<path d="M4.43076 15C4.24258 15 4.08984 14.8473 4.08984 14.6591V0.340888C4.08984 0.152738 4.24258 0 4.43076 0C4.61895 0 4.77168 0.152738 4.77168 0.34092V14.6591C4.77165 14.8473 4.61895 15 4.43076 15Z" fill="black"/>
<path d="M6.47764 14.3182C6.28946 14.3182 6.13672 14.1655 6.13672 13.9773V1.02274C6.13672 0.834562 6.28946 0.681824 6.47764 0.681824C6.66582 0.681824 6.81853 0.834562 6.81853 1.02274V13.9773C6.81853 14.1655 6.66582 14.3182 6.47764 14.3182Z" fill="black"/>
<path d="M8.52256 11.5909C8.33438 11.5909 8.18164 11.4382 8.18164 11.25V3.74998C8.18164 3.5618 8.33438 3.40906 8.52256 3.40906C8.71074 3.40906 8.86348 3.5618 8.86348 3.74998V11.25C8.86345 11.4382 8.71074 11.5909 8.52256 11.5909Z" fill="black"/>
<path d="M10.5675 14.3182C10.3793 14.3182 10.2266 14.1655 10.2266 13.9773V1.02274C10.2266 0.834562 10.3793 0.681824 10.5675 0.681824C10.7557 0.681824 10.9084 0.834562 10.9084 1.02274V13.9773C10.9084 14.1655 10.7557 14.3182 10.5675 14.3182Z" fill="black"/>
<path d="M12.6144 11.5909C12.4262 11.5909 12.2734 11.4382 12.2734 11.25V3.74998C12.2734 3.5618 12.4262 3.40906 12.6144 3.40906C12.8025 3.40906 12.9553 3.5618 12.9553 3.74998V11.25C12.9552 11.4382 12.8025 11.5909 12.6144 11.5909Z" fill="black"/>
<path d="M14.6593 9.54547C14.4711 9.54547 14.3184 9.39273 14.3184 9.20455V5.79545C14.3184 5.60727 14.4711 5.45453 14.6593 5.45453C14.8475 5.45453 15.0002 5.60727 15.0002 5.79545V9.20455C15.0002 9.39273 14.8475 9.54547 14.6593 9.54547Z" fill="black"/>
</svg>
