<svg width="20" height="20" viewBox="0 0 20 20" fill="none" xmlns="http://www.w3.org/2000/svg">
<path fill-rule="evenodd" clip-rule="evenodd" d="M3.04382 4.78258C4.00431 4.78258 4.78295 4.00395 4.78295 3.04345C4.78295 2.08296 4.00431 1.30432 3.04382 1.30432C2.08332 1.30432 1.30469 2.08296 1.30469 3.04345C1.30469 4.00395 2.08332 4.78258 3.04382 4.78258Z" stroke="black" stroke-opacity="0.8" stroke-width="1.5" stroke-linecap="round" stroke-linejoin="round"/>
<path fill-rule="evenodd" clip-rule="evenodd" d="M3.04382 11.7391C4.00431 11.7391 4.78295 10.9605 4.78295 9.99996C4.78295 9.03944 4.00431 8.26083 3.04382 8.26083C2.08332 8.26083 1.30469 9.03944 1.30469 9.99996C1.30469 10.9605 2.08332 11.7391 3.04382 11.7391Z" stroke="black" stroke-opacity="0.8" stroke-width="1.5" stroke-linecap="round" stroke-linejoin="round"/>
<path fill-rule="evenodd" clip-rule="evenodd" d="M3.04382 18.6956C4.00431 18.6956 4.78295 17.917 4.78295 16.9565C4.78295 15.996 4.00431 15.2174 3.04382 15.2174C2.08332 15.2174 1.30469 15.996 1.30469 16.9565C1.30469 17.917 2.08332 18.6956 3.04382 18.6956Z" stroke="black" stroke-opacity="0.8" stroke-width="1.5" stroke-linecap="round" stroke-linejoin="round"/>
<path d="M8.26172 3.04346H18.6965" stroke="black" stroke-opacity="0.8" stroke-width="1.5" stroke-linecap="round" stroke-linejoin="round"/>
<path d="M8.26172 9.99997H18.6965" stroke="black" stroke-opacity="0.8" stroke-width="1.5" stroke-linecap="round" stroke-linejoin="round"/>
<path d="M8.26172 16.9565H18.6965" stroke="black" stroke-opacity="0.8" stroke-width="1.5" stroke-linecap="round" stroke-linejoin="round"/>
</svg>
